<svg xmlns="http://www.w3.org/2000/svg" width="20.256" height="20.665" viewBox="0 0 20.256 20.665"><defs><style>.a{fill:#fff;}</style></defs><path class="a" d="M20.077,8.47a12.166,12.166,0,0,1,.18,2.1,10.089,10.089,0,0,1-3.079,7.6h0a9.882,9.882,0,0,1-6.848,2.494A10.332,10.332,0,1,1,10.332,0a9.931,9.931,0,0,1,6.912,2.689l-2.95,2.95a5.614,5.614,0,0,0-3.962-1.55,6.246,6.246,0,0,0-5.8,8.223h0a6.268,6.268,0,0,0,9.317,3.277h0a4.781,4.781,0,0,0,2.065-3.14H10.332V8.471h9.745Z" transform="translate(0 0.001)"/></svg>