<svg xmlns="http://www.w3.org/2000/svg" width="11.488" height="12.636" viewBox="0 0 11.488 12.636"><defs><style>.a{fill:#8d909e;}</style></defs><path class="a" d="M9.744,5.734ZM4.862,9.467A.883.883,0,0,1,4,8.605V2.862a.827.827,0,0,1,.258-.6A.827.827,0,0,1,4.862,2h9.765a.827.827,0,0,1,.6.258.827.827,0,0,1,.258.6V8.605a.883.883,0,0,1-.862.862h-2.14a2.034,2.034,0,0,0,.1-.416,3.366,3.366,0,0,0,.029-.445h2.01V2.862H4.862V8.605h2.01a3.366,3.366,0,0,0,.029.445,2.034,2.034,0,0,0,.1.416Zm2.3-3.044.388-.876.876-.388-.876-.388L7.159,3.9l-.388.876L5.9,5.159l.876.388Zm5.169-1.048a.792.792,0,0,0,.56-1.35.792.792,0,0,0-1.12,1.12A.762.762,0,0,0,12.329,5.375ZM5.723,14.636V13.43A1.68,1.68,0,0,1,6,12.5a1.755,1.755,0,0,1,.74-.646,6.859,6.859,0,0,1,1.465-.5,7.231,7.231,0,0,1,3.073,0,6.859,6.859,0,0,1,1.465.5,1.755,1.755,0,0,1,.74.646,1.68,1.68,0,0,1,.28.933v1.206Zm.862-.862H12.9V13.43a.8.8,0,0,0-.144-.467.953.953,0,0,0-.388-.323,6.4,6.4,0,0,0-1.278-.438,6.117,6.117,0,0,0-2.7,0,6.4,6.4,0,0,0-1.278.438.953.953,0,0,0-.388.323.8.8,0,0,0-.144.467Zm3.159-3.159a2.01,2.01,0,0,1-2.01-2.01A2.01,2.01,0,0,1,9.744,6.6a2.01,2.01,0,0,1,2.01,2.01,2.01,2.01,0,0,1-2.01,2.01Zm0-.862a1.152,1.152,0,1,0-.811-.337A1.106,1.106,0,0,0,9.744,9.754ZM9.744,8.605ZM9.744,13.775Z" transform="translate(-4 -2)"/></svg>