<svg xmlns="http://www.w3.org/2000/svg" width="22.461" height="11.235" viewBox="0 0 22.461 11.235"><defs><style>.a{fill:#fff;}</style></defs><g transform="translate(0 -3.998)"><path class="a" d="M0,9.616A5.615,5.615,0,0,1,10.479,6.808h9.173a.7.7,0,0,1,.5.2l2.106,2.106a.7.7,0,0,1,0,.994l-2.106,2.106a.7.7,0,0,1-.994,0l-.907-.908-.907.908a.7.7,0,0,1-.994,0l-.907-.908-.907.908a.7.7,0,0,1-.994,0l-.907-.908-.907.908a.7.7,0,0,1-.5.2h-.751A5.615,5.615,0,0,1,0,9.616ZM5.615,5.4A4.211,4.211,0,1,0,9.422,11.42a.7.7,0,0,1,.633-.4h.884l1.2-1.2a.7.7,0,0,1,.994,0l.907.908.907-.908a.7.7,0,0,1,.994,0l.907.908.907-.908a.7.7,0,0,1,.994,0l.907.908,1.113-1.113-1.4-1.4H10.055a.7.7,0,0,1-.633-.4A4.211,4.211,0,0,0,5.615,5.4Z" transform="translate(0 0)"/><path class="a" d="M4.807,8.4A1.4,1.4,0,1,1,3.4,7,1.4,1.4,0,0,1,4.807,8.4Z" transform="translate(0.807 1.212)"/></g></svg>