<svg xmlns="http://www.w3.org/2000/svg" width="20.815" height="20.815" viewBox="0 0 20.815 20.815"><defs><style>.a{fill:#fff;}</style></defs><path class="a" d="M12.407,12.407A5.2,5.2,0,1,0,7.2,7.2,5.2,5.2,0,0,0,12.407,12.407Zm3.469-5.2a3.469,3.469,0,1,1-3.469-3.469A3.469,3.469,0,0,1,15.876,7.2ZM22.815,21.08a1.7,1.7,0,0,1-1.735,1.735H3.735A1.7,1.7,0,0,1,2,21.08c0-1.735,1.735-6.938,10.407-6.938S22.815,19.346,22.815,21.08Zm-1.735-.007a4.635,4.635,0,0,0-1.443-2.886c-1.131-1.131-3.259-2.31-7.23-2.31s-6.1,1.179-7.23,2.31a4.644,4.644,0,0,0-1.443,2.886Z" transform="translate(-2 -2)"/></svg>