<svg xmlns="http://www.w3.org/2000/svg" width="20.665" height="16.791" viewBox="0 0 20.665 16.791"><defs><style>.a{fill:#fff;}</style></defs><path class="a" d="M6.491,18.79A11.981,11.981,0,0,0,18.555,6.735c0-.181,0-.364-.008-.545a8.634,8.634,0,0,0,2.117-2.2,8.6,8.6,0,0,1-2.44.669,4.263,4.263,0,0,0,1.869-2.347,8.438,8.438,0,0,1-2.7,1.024,4.244,4.244,0,0,0-7.227,3.867,12.044,12.044,0,0,1-8.74-4.429A4.248,4.248,0,0,0,2.746,8.436,4.292,4.292,0,0,1,.827,7.909v.058a4.247,4.247,0,0,0,3.4,4.156,4.137,4.137,0,0,1-1.117.149,4.172,4.172,0,0,1-.793-.074,4.24,4.24,0,0,0,3.961,2.941,8.509,8.509,0,0,1-5.269,1.817A8.162,8.162,0,0,1,0,16.9,12.068,12.068,0,0,0,6.491,18.79Z" transform="translate(0 -1.999)"/></svg>